<svg width="94" height="22" viewBox="0 0 94 22" fill="none" xmlns="http://www.w3.org/2000/svg">
<path fill-rule="evenodd" clip-rule="evenodd" d="M8.18182 15.3636C7.4585 15.3636 6.76481 15.0763 6.25335 14.5648C5.74188 14.0534 5.45455 13.3597 5.45455 12.6364V0.0909119H0V12.6364C0 17.1549 3.66327 20.8182 8.18182 20.8182H14.1818V15.3636H8.18182ZM24.5455 5.54546C23.9008 5.54546 23.2624 5.67243 22.6668 5.91914C22.0712 6.16584 21.5301 6.52744 21.0742 6.9833C20.6184 7.43915 20.2568 7.98032 20.01 8.57592C19.7633 9.17152 19.6364 9.80988 19.6364 10.4545C19.6364 11.0992 19.7633 11.7376 20.01 12.3332C20.2568 12.9288 20.6184 13.4699 21.0742 13.9258C21.5301 14.3816 22.0712 14.7433 22.6668 14.99C23.2624 15.2367 23.9008 15.3636 24.5455 15.3636C25.8474 15.3636 27.0961 14.8464 28.0167 13.9258C28.9373 13.0052 29.4545 11.7565 29.4545 10.4545C29.4545 9.15258 28.9373 7.90393 28.0167 6.9833C27.0961 6.06266 25.8474 5.54546 24.5455 5.54546ZM14.1818 10.4545C14.1818 4.73109 18.822 0.0909119 24.5455 0.0909119C30.2689 0.0909119 34.9091 4.73109 34.9091 10.4545C34.9091 16.178 30.2689 20.8182 24.5455 20.8182C18.822 20.8182 14.1818 16.178 14.1818 10.4545ZM83.4546 5.54546C82.1526 5.54546 80.9039 6.06266 79.9833 6.9833C79.0627 7.90393 78.5455 9.15258 78.5455 10.4545C78.5455 11.7565 79.0627 13.0052 79.9833 13.9258C80.9039 14.8464 82.1526 15.3636 83.4546 15.3636C84.7565 15.3636 86.0052 14.8464 86.9258 13.9258C87.8464 13.0052 88.3636 11.7565 88.3636 10.4545C88.3636 9.15258 87.8464 7.90393 86.9258 6.9833C86.0052 6.06266 84.7565 5.54546 83.4546 5.54546ZM73.0909 10.4545C73.0909 4.73109 77.7311 0.0909119 83.4546 0.0909119C89.178 0.0909119 93.8182 4.73109 93.8182 10.4545C93.8182 16.178 89.178 20.8182 83.4546 20.8182C77.7311 20.8182 73.0909 16.178 73.0909 10.4545ZM46.3636 0.0909119C40.6402 0.0909119 36 4.73109 36 10.4545C36 16.178 40.6402 20.8182 46.3636 20.8182H61.6364C62.7104 20.8182 63.7462 20.6545 64.7204 20.3513L67.6364 21.9091L70.7826 16.016C71.5818 14.5158 71.9999 12.8421 72 11.1424V10.4545C72 4.73109 67.3598 0.0909119 61.6364 0.0909119H46.3636ZM66.5455 10.4545C66.5455 9.15258 66.0283 7.90393 65.1076 6.9833C64.187 6.06266 62.9383 5.54546 61.6364 5.54546H46.3636C45.719 5.54546 45.0806 5.67243 44.485 5.91914C43.8894 6.16584 43.3482 6.52744 42.8924 6.9833C42.4365 7.43915 42.0749 7.98032 41.8282 8.57592C41.5815 9.17152 41.4546 9.80988 41.4546 10.4545C41.4546 11.0992 41.5815 11.7376 41.8282 12.3332C42.0749 12.9288 42.4365 13.4699 42.8924 13.9258C43.3482 14.3816 43.8894 14.7433 44.485 14.99C45.0806 15.2367 45.719 15.3636 46.3636 15.3636H61.6364C62.9318 15.3637 64.1747 14.8517 65.0942 13.9393C66.0137 13.0269 66.5354 11.7881 66.5455 10.4927V10.4545Z" fill="#283841"/>
</svg>
