<svg width="137" height="37" viewBox="0 0 137 37" fill="none" xmlns="http://www.w3.org/2000/svg">
<g id="Social icons">
<g id="Twitter">
<path id="Oval 10 Copy" opacity="0.25" fill-rule="evenodd" clip-rule="evenodd" d="M118.5 35.9104C128.165 35.9104 136 28.0754 136 18.4104C136 8.74542 128.165 0.9104 118.5 0.9104C108.835 0.9104 101 8.74542 101 18.4104C101 28.0754 108.835 35.9104 118.5 35.9104Z" stroke="white" stroke-width="1.5"/>
<path id="Shape" d="M124.22 15.1751C124.139 15.0833 124.008 15.0602 123.901 15.1168C123.834 15.152 123.708 15.1982 123.559 15.2438C123.747 14.9866 123.899 14.6986 123.965 14.4397C123.994 14.3281 123.952 14.2105 123.86 14.144C123.768 14.0781 123.646 14.0781 123.554 14.144C123.409 14.2479 122.71 14.5601 122.268 14.6612C121.27 13.7615 120.107 13.6681 118.899 14.3935C117.917 14.9833 117.703 16.1825 117.745 16.9135C115.497 16.6909 114.1 15.4697 113.313 14.4589C113.258 14.388 113.169 14.3507 113.086 14.3562C112.999 14.3628 112.919 14.4128 112.875 14.4903C112.503 15.1361 112.4 15.85 112.577 16.5551C112.675 16.9399 112.845 17.279 113.042 17.5538C112.947 17.506 112.856 17.4461 112.77 17.3746C112.691 17.3076 112.58 17.2949 112.487 17.3394C112.394 17.3851 112.334 17.4818 112.334 17.5879C112.334 18.7986 113.071 19.6066 113.758 20.0287C113.647 20.0149 113.531 19.9896 113.414 19.9528C113.314 19.9215 113.205 19.9528 113.135 20.0342C113.066 20.115 113.049 20.2304 113.093 20.3288C113.479 21.2076 114.211 21.8121 115.117 22.0314C114.326 22.509 113.267 22.7432 112.298 22.6283C112.172 22.6102 112.053 22.6921 112.013 22.8163C111.974 22.9405 112.025 23.0768 112.136 23.1405C113.607 23.9897 114.936 24.2931 116.085 24.2931C117.757 24.2931 119.047 23.6511 119.833 23.1142C121.95 21.6687 123.27 19.0734 123.086 16.7514C123.426 16.4936 123.933 16.0176 124.248 15.5059C124.313 15.4026 124.301 15.2663 124.22 15.1751Z" fill="white"/>
</g>
<g id="Facebook">
<path id="Oval 10" opacity="0.25" fill-rule="evenodd" clip-rule="evenodd" d="M68.5 35.9104C78.165 35.9104 86 28.0754 86 18.4104C86 8.74542 78.165 0.9104 68.5 0.9104C58.835 0.9104 51 8.74542 51 18.4104C51 28.0754 58.835 35.9104 68.5 35.9104Z" stroke="white" stroke-width="1.5"/>
<path id="Shape_2" d="M70.0932 13.9309H71.7016C71.8495 13.9309 71.9696 13.8178 71.9696 13.6783V12.1628C71.9696 12.0233 71.8495 11.9102 71.7016 11.9102H70.0932C68.4677 11.9102 67.1445 13.1565 67.1445 14.6887V16.4569H65.2681C65.1201 16.4569 65 16.5701 65 16.7095V18.2251C65 18.3645 65.1201 18.4777 65.2681 18.4777H67.1445V23.7823C67.1445 23.9217 67.2646 24.0349 67.4126 24.0349H69.0209C69.1689 24.0349 69.289 23.9217 69.289 23.7823V18.4777H71.1655C71.2807 18.4777 71.3831 18.408 71.4201 18.3049L71.9562 16.7893C71.9836 16.7125 71.9696 16.6277 71.9192 16.5615C71.8683 16.4958 71.7879 16.4569 71.7016 16.4569H69.289V14.6887C69.289 14.2709 69.6498 13.9309 70.0932 13.9309Z" fill="white"/>
</g>
<g id="Linkedin">
<path id="Oval 10 Copy 3" opacity="0.25" fill-rule="evenodd" clip-rule="evenodd" d="M18.5 35.9104C28.165 35.9104 36 28.0754 36 18.4104C36 8.74542 28.165 0.9104 18.5 0.9104C8.83502 0.9104 1 8.74542 1 18.4104C1 28.0754 8.83502 35.9104 18.5 35.9104Z" stroke="white" stroke-width="1.5"/>
<g id="Group 36">
<path id="Oval" d="M14.4835 14.8775C15.3029 14.8775 15.9671 14.2133 15.9671 13.3939C15.9671 12.5746 15.3029 11.9104 14.4835 11.9104C13.6642 11.9104 13 12.5746 13 13.3939C13 14.2133 13.6642 14.8775 14.4835 14.8775Z" fill="white"/>
<path id="Shape_3" d="M15.7198 15.8684H13.2473C13.1108 15.8684 13 15.9792 13 16.1157V23.5334C13 23.6699 13.1108 23.7807 13.2473 23.7807H15.7198C15.8563 23.7807 15.9671 23.6699 15.9671 23.5334V16.1157C15.9671 15.9792 15.8563 15.8684 15.7198 15.8684Z" fill="white"/>
<path id="Shape_4" d="M23.088 15.457C22.0313 15.0951 20.7094 15.413 19.9167 15.9832C19.8895 15.8769 19.7926 15.7978 19.6774 15.7978H17.2048C17.0683 15.7978 16.9575 15.9085 16.9575 16.045V23.4628C16.9575 23.5993 17.0683 23.71 17.2048 23.71H19.6774C19.8138 23.71 19.9246 23.5993 19.9246 23.4628V18.1319C20.3242 17.7877 20.839 17.6779 21.2603 17.8569C21.6688 18.0295 21.9027 18.4508 21.9027 19.0121V23.4628C21.9027 23.5993 22.0135 23.71 22.1499 23.71H24.6225C24.759 23.71 24.8698 23.5993 24.8698 23.4628V18.5141C24.8416 16.4822 23.8857 15.73 23.088 15.457Z" fill="white"/>
</g>
</g>
</g>
</svg>
